<?xml version="1.0" encoding="utf-8"?>
<!-- Generator: Adobe Illustrator 27.0.0, SVG Export Plug-In . SVG Version: 6.00 Build 0)  -->
<svg version="1.1" id="Layer_1" xmlns="http://www.w3.org/2000/svg" xmlns:xlink="http://www.w3.org/1999/xlink" x="0px" y="0px"
	 viewBox="0 0 60 60" style="enable-background:new 0 0 60 60;" xml:space="preserve">
<g>
	<path style="fill:#FFFFFF;" d="M9.37,1.45c0.04,0,0.07,0,0.11,0C9.54,1.52,9.59,1.6,9.66,1.66c6.67,6.68,13.35,13.35,20.02,20.02
		c0.1,0.1,0.22,0.19,0.33,0.29c0.13-0.13,0.24-0.22,0.35-0.33C37.01,15,43.66,8.35,50.3,1.7c0.08-0.08,0.14-0.17,0.21-0.25
		c0.04,0,0.07,0,0.11,0c0.08,0.1,0.14,0.21,0.23,0.3c2.46,2.46,4.92,4.93,7.39,7.39c0.09,0.09,0.2,0.15,0.3,0.23
		c0,0.04,0,0.07,0,0.11c-0.07,0.06-0.15,0.11-0.21,0.17C51.66,16.33,44.99,23,38.31,29.68c-0.1,0.1-0.19,0.22-0.29,0.33
		c0.13,0.13,0.22,0.24,0.33,0.35C45,37.01,51.65,43.66,58.3,50.3c0.08,0.08,0.17,0.14,0.25,0.21c0,0.04,0,0.07,0,0.11
		c-0.1,0.08-0.21,0.14-0.3,0.23c-2.46,2.46-4.93,4.92-7.39,7.39c-0.09,0.09-0.15,0.2-0.23,0.3c-0.04,0-0.07,0-0.11,0
		c-0.06-0.07-0.11-0.15-0.18-0.21c-6.67-6.68-13.35-13.35-20.02-20.02c-0.1-0.1-0.22-0.19-0.33-0.29c-0.13,0.12-0.24,0.22-0.35,0.33
		C22.99,45,16.34,51.65,9.7,58.3c-0.08,0.08-0.14,0.17-0.21,0.25c-0.04,0-0.07,0-0.11,0c-0.08-0.1-0.14-0.21-0.23-0.3
		c-2.46-2.46-4.92-4.93-7.39-7.39c-0.09-0.09-0.2-0.15-0.3-0.23c0-0.04,0-0.07,0-0.11c0.07-0.06,0.15-0.11,0.21-0.17
		c6.68-6.67,13.35-13.35,20.02-20.02c0.1-0.1,0.19-0.22,0.29-0.33c-0.12-0.13-0.22-0.24-0.33-0.35C15,22.99,8.35,16.34,1.7,9.7
		C1.63,9.62,1.54,9.55,1.45,9.48c0-0.04,0-0.07,0-0.11c0.1-0.08,0.21-0.14,0.3-0.23c2.46-2.46,4.93-4.92,7.39-7.39
		C9.23,1.66,9.29,1.55,9.37,1.45z"/>
</g>
</svg>
