<svg width="85" height="84" viewBox="0 0 85 84" fill="none" xmlns="http://www.w3.org/2000/svg">
<path d="M39.7962 71.5116C39.6543 72.0795 39.3266 72.5837 38.8652 72.9439C38.4039 73.3042 37.8353 73.5 37.25 73.5001C37.0288 73.5011 36.8084 73.4747 36.5937 73.4213L26.0937 70.7963C25.8014 70.7229 25.5239 70.5997 25.2734 70.4321L17.3984 65.1821C16.8193 64.7957 16.4173 64.1951 16.281 63.5123C16.1447 62.8296 16.2852 62.1207 16.6716 61.5415C17.058 60.9624 17.6586 60.5605 18.3414 60.4242C19.0241 60.2879 19.733 60.4284 20.3122 60.8147L27.8065 65.8121L37.8669 68.3288C38.203 68.4103 38.5197 68.5574 38.7988 68.7617C39.0779 68.966 39.3139 69.2234 39.4931 69.5192C39.6724 69.8149 39.7915 70.1432 39.8435 70.4851C39.8955 70.8271 39.8795 71.1759 39.7962 71.5116ZM83.3351 39.8607C83.1197 40.5149 82.7769 41.12 82.3263 41.6409C81.8758 42.1619 81.3265 42.5884 80.7101 42.8958L72.9401 46.7808L54.867 64.8572C54.5462 65.1777 54.1479 65.4096 53.7109 65.5303C53.2739 65.6511 52.813 65.6566 52.3733 65.5463L31.3733 60.2963C31.0539 60.2161 30.7523 60.077 30.484 59.8861L12.2665 46.8793L4.29967 42.8958C3.05455 42.2734 2.1076 41.182 1.66704 39.8615C1.22647 38.541 1.32836 37.0996 1.9503 35.8543L10.1042 19.5497C10.7266 18.3046 11.8181 17.3577 13.1385 16.9171C14.459 16.4765 15.9004 16.5784 17.1458 17.2004L24.3842 20.8097L41.7748 15.8419C42.2466 15.707 42.7468 15.707 43.2186 15.8419L60.6092 20.8097L67.8476 17.2004C69.093 16.5784 70.5344 16.4765 71.8549 16.9171C73.1753 17.3577 74.2668 18.3046 74.8892 19.5497L83.0431 35.8543C83.3541 36.4697 83.54 37.1406 83.5902 37.8282C83.6403 38.5159 83.5536 39.2067 83.3351 39.8607ZM68.1823 44.1066L59.254 26.2501H48.8131L34.625 40.0313C38.779 42.6858 45.2923 43.4176 51.1362 37.5277C51.5926 37.0677 52.2031 36.7927 52.85 36.7558C53.497 36.7188 54.1348 36.9225 54.6406 37.3276L65.9314 46.374L68.1823 44.1066ZM6.64576 38.2004L12.4503 41.1043L20.6042 24.7997L14.7997 21.8958L6.64576 38.2004ZM62.1875 50.0916L53.0951 42.8105C46.6836 48.0605 38.5428 48.7529 31.7965 44.4512C31.1329 44.029 30.5726 43.4632 30.1571 42.7955C29.7415 42.1277 29.4813 41.3751 29.3956 40.5933C29.3099 39.8115 29.401 39.0205 29.6621 38.2786C29.9232 37.5367 30.3476 36.8629 30.904 36.3071C30.9119 36.2975 30.9207 36.2887 30.9303 36.2808L45.65 22.0041L42.5 21.1051L25.9559 25.8333L16.9751 43.7916L33.1189 55.3252L52.1961 60.0929L62.1875 50.0916ZM78.3444 38.2004L70.2003 21.8958L64.3958 24.7997L72.5497 41.1043L78.3444 38.2004Z" fill="#EB9C4D"/>
</svg>
