<svg width="85" height="84" viewBox="0 0 85 84" fill="none" xmlns="http://www.w3.org/2000/svg">
<path d="M70.5 59.5C72.3565 59.5 74.137 58.7625 75.4497 57.4497C76.7625 56.137 77.5 54.3565 77.5 52.5V14C77.5 12.1435 76.7625 10.363 75.4497 9.05025C74.137 7.7375 72.3565 7 70.5 7H33.61C34.835 9.135 35.5 11.55 35.5 14H70.5V52.5H39V59.5M53 24.5V31.5H32V77H25V56H18V77H11V49H5.75V31.5C5.75 29.6435 6.4875 27.863 7.80025 26.5503C9.11301 25.2375 10.8935 24.5 12.75 24.5H53ZM28.5 14C28.5 15.8565 27.7625 17.637 26.4497 18.9497C25.137 20.2625 23.3565 21 21.5 21C19.6435 21 17.863 20.2625 16.5503 18.9497C15.2375 17.637 14.5 15.8565 14.5 14C14.5 12.1435 15.2375 10.363 16.5503 9.05025C17.863 7.7375 19.6435 7 21.5 7C23.3565 7 25.137 7.7375 26.4497 9.05025C27.7625 10.363 28.5 12.1435 28.5 14Z" fill="#EB9C4D"/>
</svg>
