<svg width="85" height="84" viewBox="0 0 85 84" fill="none" xmlns="http://www.w3.org/2000/svg">
<g clip-path="url(#clip0_184_1604)">
<path d="M21 23.625C18.9233 23.625 16.8932 23.0092 15.1665 21.8554C13.4398 20.7017 12.094 19.0618 11.2993 17.1432C10.5045 15.2246 10.2966 13.1134 10.7018 11.0766C11.1069 9.03976 12.1069 7.16884 13.5754 5.70038C15.0438 4.23193 16.9148 3.2319 18.9516 2.82676C20.9884 2.42161 23.0996 2.62955 25.0182 3.42427C26.9368 4.21899 28.5767 5.5648 29.7304 7.29152C30.8842 9.01823 31.5 11.0483 31.5 13.125C31.5 15.9098 30.3938 18.5805 28.4246 20.5496C26.4555 22.5188 23.7848 23.625 21 23.625ZM21 7.875C19.9616 7.87501 18.9466 8.18291 18.0833 8.75979C17.2199 9.33667 16.547 10.1566 16.1496 11.1159C15.7523 12.0752 15.6483 13.1308 15.8509 14.1492C16.0534 15.1676 16.5535 16.1031 17.2877 16.8373C18.0219 17.5715 18.9574 18.0716 19.9758 18.2741C20.9942 18.4767 22.0498 18.3727 23.0091 17.9754C23.9684 17.578 24.7883 16.9051 25.3652 16.0417C25.9421 15.1784 26.25 14.1634 26.25 13.125C26.25 11.7326 25.6969 10.3973 24.7123 9.41269C23.7277 8.42813 22.3924 7.87501 21 7.875ZM63 23.625C60.9233 23.625 58.8932 23.0092 57.1665 21.8554C55.4398 20.7017 54.094 19.0618 53.2993 17.1432C52.5045 15.2246 52.2966 13.1134 52.7018 11.0766C53.1069 9.03976 54.1069 7.16884 55.5754 5.70038C57.0438 4.23193 58.9148 3.2319 60.9516 2.82676C62.9884 2.42161 65.0995 2.62955 67.0182 3.42427C68.9368 4.21899 70.5767 5.5648 71.7304 7.29152C72.8842 9.01823 73.5 11.0483 73.5 13.125C73.5 15.9098 72.3938 18.5805 70.4246 20.5496C68.4555 22.5188 65.7848 23.625 63 23.625ZM63 7.875C61.9616 7.87501 60.9466 8.18291 60.0833 8.75979C59.2199 9.33667 58.547 10.1566 58.1496 11.1159C57.7523 12.0752 57.6483 13.1308 57.8509 14.1492C58.0534 15.1676 58.5535 16.1031 59.2877 16.8373C60.0219 17.5715 60.9574 18.0716 61.9758 18.2741C62.9942 18.4767 64.0498 18.3727 65.0091 17.9754C65.9684 17.578 66.7883 16.9051 67.3652 16.0417C67.9421 15.1784 68.25 14.1634 68.25 13.125C68.25 11.7326 67.6969 10.3973 66.7123 9.41269C65.7277 8.42813 64.3924 7.87501 63 7.875ZM68.25 78.75H57.75C56.3576 78.75 55.0223 78.1969 54.0377 77.2123C53.0531 76.2277 52.5 74.8924 52.5 73.5V55.125H57.75V73.5H68.25V49.875H73.5V34.125C73.5 33.4288 73.2234 32.7611 72.7312 32.2689C72.2389 31.7766 71.5712 31.5 70.875 31.5H54.0225L42 52.5L29.9775 31.5H13.125C12.4288 31.5 11.7611 31.7766 11.2688 32.2689C10.7766 32.7611 10.5 33.4288 10.5 34.125V49.875H15.75V73.5H26.25V55.125H31.5V73.5C31.5 74.8924 30.9469 76.2277 29.9623 77.2123C28.9777 78.1969 27.6424 78.75 26.25 78.75H15.75C14.3576 78.75 13.0223 78.1969 12.0377 77.2123C11.0531 76.2277 10.5 74.8924 10.5 73.5V55.125C9.10761 55.125 7.77226 54.5719 6.78769 53.5873C5.80312 52.6027 5.25 51.2674 5.25 49.875V34.125C5.25 32.0364 6.07969 30.0334 7.55653 28.5565C9.03338 27.0797 11.0364 26.25 13.125 26.25H33.0225L42 42L50.9775 26.25H70.875C72.9636 26.25 74.9666 27.0797 76.4435 28.5565C77.9203 30.0334 78.75 32.0364 78.75 34.125V49.875C78.75 51.2674 78.1969 52.6027 77.2123 53.5873C76.2277 54.5719 74.8924 55.125 73.5 55.125V73.5C73.5 74.8924 72.9469 76.2277 71.9623 77.2123C70.9777 78.1969 69.6424 78.75 68.25 78.75Z" fill="#EB9C4D"/>
</g>
<defs>
<clipPath id="clip0_184_1604">
<rect width="84" height="84" fill="white" transform="translate(0.5)"/>
</clipPath>
</defs>
</svg>
