<svg width="85" height="85" viewBox="0 0 85 85" fill="none" xmlns="http://www.w3.org/2000/svg">
<g clip-path="url(#clip0_184_1609)">
<path d="M21 24.125C18.9233 24.125 16.8932 23.5092 15.1665 22.3554C13.4398 21.2017 12.094 19.5618 11.2993 17.6432C10.5045 15.7246 10.2966 13.6134 10.7018 11.5766C11.1069 9.53976 12.1069 7.66884 13.5754 6.20038C15.0438 4.73193 16.9148 3.7319 18.9516 3.32676C20.9884 2.92161 23.0996 3.12955 25.0182 3.92427C26.9368 4.71899 28.5767 6.0648 29.7304 7.79152C30.8842 9.51823 31.5 11.5483 31.5 13.625C31.5 16.4098 30.3938 19.0805 28.4246 21.0496C26.4555 23.0188 23.7848 24.125 21 24.125ZM21 8.375C19.9616 8.37501 18.9466 8.68291 18.0833 9.25979C17.2199 9.83667 16.547 10.6566 16.1496 11.6159C15.7523 12.5752 15.6483 13.6308 15.8509 14.6492C16.0534 15.6676 16.5535 16.6031 17.2877 17.3373C18.0219 18.0715 18.9574 18.5716 19.9758 18.7741C20.9942 18.9767 22.0498 18.8727 23.0091 18.4754C23.9684 18.078 24.7883 17.4051 25.3652 16.5417C25.9421 15.6784 26.25 14.6634 26.25 13.625C26.25 12.2326 25.6969 10.8973 24.7123 9.91269C23.7277 8.92813 22.3924 8.37501 21 8.375ZM63 24.125C60.9233 24.125 58.8932 23.5092 57.1665 22.3554C55.4398 21.2017 54.094 19.5618 53.2993 17.6432C52.5045 15.7246 52.2966 13.6134 52.7018 11.5766C53.1069 9.53976 54.1069 7.66884 55.5754 6.20038C57.0438 4.73193 58.9148 3.7319 60.9516 3.32676C62.9884 2.92161 65.0995 3.12955 67.0182 3.92427C68.9368 4.71899 70.5767 6.0648 71.7304 7.79152C72.8842 9.51823 73.5 11.5483 73.5 13.625C73.5 16.4098 72.3938 19.0805 70.4246 21.0496C68.4555 23.0188 65.7848 24.125 63 24.125ZM63 8.375C61.9616 8.37501 60.9466 8.68291 60.0833 9.25979C59.2199 9.83667 58.547 10.6566 58.1496 11.6159C57.7523 12.5752 57.6483 13.6308 57.8509 14.6492C58.0534 15.6676 58.5535 16.6031 59.2877 17.3373C60.0219 18.0715 60.9574 18.5716 61.9758 18.7741C62.9942 18.9767 64.0498 18.8727 65.0091 18.4754C65.9684 18.078 66.7883 17.4051 67.3652 16.5417C67.9421 15.6784 68.25 14.6634 68.25 13.625C68.25 12.2326 67.6969 10.8973 66.7123 9.91269C65.7277 8.92813 64.3924 8.37501 63 8.375ZM68.25 79.25H57.75C56.3576 79.25 55.0223 78.6969 54.0377 77.7123C53.0531 76.7277 52.5 75.3924 52.5 74V55.625H57.75V74H68.25V50.375H73.5V34.625C73.5 33.9288 73.2234 33.2611 72.7312 32.7689C72.2389 32.2766 71.5712 32 70.875 32H54.0225L42 53L29.9775 32H13.125C12.4288 32 11.7611 32.2766 11.2688 32.7689C10.7766 33.2611 10.5 33.9288 10.5 34.625V50.375H15.75V74H26.25V55.625H31.5V74C31.5 75.3924 30.9469 76.7277 29.9623 77.7123C28.9777 78.6969 27.6424 79.25 26.25 79.25H15.75C14.3576 79.25 13.0223 78.6969 12.0377 77.7123C11.0531 76.7277 10.5 75.3924 10.5 74V55.625C9.10761 55.625 7.77226 55.0719 6.78769 54.0873C5.80312 53.1027 5.25 51.7674 5.25 50.375V34.625C5.25 32.5364 6.07969 30.5334 7.55653 29.0565C9.03338 27.5797 11.0364 26.75 13.125 26.75H33.0225L42 42.5L50.9775 26.75H70.875C72.9636 26.75 74.9666 27.5797 76.4435 29.0565C77.9203 30.5334 78.75 32.5364 78.75 34.625V50.375C78.75 51.7674 78.1969 53.1027 77.2123 54.0873C76.2277 55.0719 74.8924 55.625 73.5 55.625V74C73.5 75.3924 72.9469 76.7277 71.9623 77.7123C70.9777 78.6969 69.6424 79.25 68.25 79.25Z" fill="#EB9C4D"/>
</g>
<defs>
<clipPath id="clip0_184_1609">
<rect width="84" height="84" fill="white" transform="translate(0.5 0.5)"/>
</clipPath>
</defs>
</svg>
