<svg width="64" height="42" viewBox="0 0 64 42" fill="none" xmlns="http://www.w3.org/2000/svg">
<path d="M6.156 42C4.54367 42 3.1985 41.461 2.1205 40.383C1.0425 39.305 0.502333 37.9587 0.5 36.344V5.656C0.5 4.04367 1.04017 2.6985 2.1205 1.6205C3.20083 0.542499 4.54483 0.00233333 6.1525 0H57.8475C59.4575 0 60.8015 0.540166 61.8795 1.6205C62.9575 2.70083 63.4977 4.046 63.5 5.656V36.3475C63.5 37.9575 62.9598 39.3027 61.8795 40.383C60.7992 41.4633 59.4552 42.0023 57.8475 42H6.156ZM6.156 38.5H57.8475C58.3842 38.5 58.8777 38.276 59.328 37.828C59.7783 37.38 60.0023 36.8853 60 36.344V5.656C60 5.117 59.776 4.62233 59.328 4.172C58.88 3.72167 58.3865 3.49767 57.8475 3.5H6.1525C5.61583 3.5 5.12233 3.724 4.672 4.172C4.22167 4.62 3.99767 5.11467 4 5.656V36.3475C4 36.8842 4.224 37.3777 4.672 37.828C5.12 38.2783 5.6135 38.5023 6.1525 38.5M18.8085 34.195H45.1915V28.805H18.8085V34.195ZM8.3085 23.695H13.6915V18.305H8.3085V23.695ZM18.8085 23.695H24.1915V18.305H18.8085V23.695ZM29.3085 23.695H34.6915V18.305H29.3085V23.695ZM39.8085 23.695H45.1915V18.305H39.8085V23.695ZM50.3085 23.695H55.6915V18.305H50.3085V23.695ZM8.3085 13.195H13.6915V7.805H8.3085V13.195ZM18.8085 13.195H24.1915V7.805H18.8085V13.195ZM29.3085 13.195H34.6915V7.805H29.3085V13.195ZM39.8085 13.195H45.1915V7.805H39.8085V13.195ZM50.3085 13.195H55.6915V7.805H50.3085V13.195Z" fill="#EB9C4D"/>
</svg>
