<?xml version="1.0" encoding="UTF-8" standalone="no"?>
<svg
   xmlns:dc="http://purl.org/dc/elements/1.1/"
   xmlns:cc="http://creativecommons.org/ns#"
   xmlns:rdf="http://www.w3.org/1999/02/22-rdf-syntax-ns#"
   xmlns:svg="http://www.w3.org/2000/svg"
   xmlns="http://www.w3.org/2000/svg"
   viewBox="0 0 1333.3333 1333.3333"
   height="1333.3333"
   width="1333.3333"
   xml:space="preserve"
   id="svg2"
   version="1.1"><metadata
     id="metadata8"><rdf:RDF><cc:Work
         rdf:about=""><dc:format>image/svg+xml</dc:format><dc:type
           rdf:resource="http://purl.org/dc/dcmitype/StillImage" /></cc:Work></rdf:RDF></metadata><defs
     id="defs6"><clipPath
       id="clipPath22"
       clipPathUnits="userSpaceOnUse"><path
         id="path20"
         d="M 0,1000 H 1000 V 0 H 0 Z" /></clipPath><clipPath
       id="clipPath74"
       clipPathUnits="userSpaceOnUse"><path
         id="path72"
         d="M 0,1000 H 1000 V 0 H 0 Z" /></clipPath><linearGradient
       id="linearGradient94"
       spreadMethod="pad"
       gradientTransform="matrix(679.30432,-527.47827,-527.47827,-679.30432,982.01392,1048.1113)"
       gradientUnits="userSpaceOnUse"
       y2="0"
       x2="1"
       y1="0"
       x1="0"><stop
         id="stop88"
         offset="0"
         style="stop-opacity:1;stop-color:#0161ec" /><stop
         id="stop90"
         offset="0.27773324"
         style="stop-opacity:1;stop-color:#0161ec" /><stop
         id="stop92"
         offset="1"
         style="stop-opacity:1;stop-color:#001540" /></linearGradient></defs><g
     transform="matrix(1.3333333,0,0,-1.3333333,0,1333.3333)"
     id="g10"><text
       id="text14"
       style="font-variant:normal;font-weight:600;font-stretch:normal;font-size:28.51860046px;font-family:'Axiforma SemiBold';-inkscape-font-specification:Axiforma-SemiBold;writing-mode:lr-tb;fill:#1e1e1e;fill-opacity:1;fill-rule:nonzero;stroke:none"
       transform="matrix(1,0,0,-1,310.7095,437.9219)"><tspan
         id="tspan12"
         y="0"
         x="0 30.971199 62.11351 96.906204 131.67038 164.29565 184.82904 218.79469 252.64627 285.72784 323.42944 357.39508">STUDY ABROAD</tspan></text>
<g
       id="g16"><g
         clip-path="url(#clipPath22)"
         id="g18"><g
           transform="translate(311.2959,518.6179)"
           id="g24"><path
             id="path26"
             style="fill:#263169;fill-opacity:1;fill-rule:nonzero;stroke:none"
             d="m 0,0 c -1.33,3.103 -3.438,5.608 -6.319,7.516 -2.883,1.906 -6.01,2.861 -9.379,2.861 -3.725,0 -6.918,-0.932 -9.578,-2.794 C -27.937,5.72 -29.978,3.193 -31.396,0 Z m -45.564,9.911 c 2.97,5.276 7.051,9.489 12.239,12.638 5.189,3.147 10.886,4.723 17.095,4.723 5.674,0 11.129,-1.31 16.363,-3.925 5.232,-2.617 9.556,-6.408 12.971,-11.374 3.413,-4.968 5.209,-10.822 5.387,-17.561 0.088,-2.839 -0.089,-5.586 -0.531,-8.247 h -49.356 c 0.798,-3.283 2.549,-5.877 5.255,-7.783 2.704,-1.908 6.007,-2.86 9.911,-2.86 2.748,0 4.989,0.353 6.718,1.065 1.729,0.708 3.303,1.639 4.723,2.793 l 20.62,-0.134 c -2.75,-6.119 -6.963,-11.086 -12.638,-14.898 -5.677,-3.816 -11.973,-5.722 -18.891,-5.722 -7.834,0 -14.841,2.368 -21.025,7.1 -2.604,1.992 -4.907,4.371 -6.822,7.033 -4.317,5.997 -6.476,12.682 -6.476,20.057 0,6.119 1.485,11.817 4.457,17.095" /></g><g
           transform="translate(358.5206,524.0054)"
           id="g28"><path
             id="path30"
             style="fill:#263169;fill-opacity:1;fill-rule:nonzero;stroke:none"
             d="m 0,0 c -3.193,-3.325 -4.789,-7.473 -4.789,-12.438 0,-4.968 1.596,-9.113 4.789,-12.439 3.193,-3.325 7.227,-4.989 12.106,-4.989 4.877,0 8.957,1.664 12.239,4.989 3.28,3.326 4.923,7.471 4.923,12.439 0,4.965 -1.643,9.113 -4.923,12.438 C 21.063,3.326 16.983,4.989 12.106,4.989 7.227,4.989 3.193,3.326 0,0 m 41.839,-29.666 c -3.06,-5.277 -7.207,-9.445 -12.439,-12.505 -5.234,-3.059 -10.954,-4.59 -17.161,-4.59 -6.209,0 -11.929,1.531 -17.161,4.59 -5.234,3.06 -9.402,7.228 -12.505,12.505 -3.105,5.276 -4.656,11.019 -4.656,17.228 0,6.207 1.551,11.95 4.656,17.228 3.103,5.275 7.271,9.445 12.505,12.504 5.232,3.06 10.952,4.59 17.161,4.59 6.473,0 12.06,-1.686 16.762,-5.055 v 30.597 c 9.625,0 17.428,-7.802 17.428,-17.427 v -42.437 c 0,-6.209 -1.53,-11.952 -4.59,-17.228" /></g><g
           transform="translate(474.1238,544.8252)"
           id="g32"><path
             id="path34"
             style="fill:#263169;fill-opacity:1;fill-rule:nonzero;stroke:none"
             d="m 0,0 v -34.988 c 0,-10.821 -2.66,-18.957 -7.982,-24.411 -5.321,-5.454 -12.418,-8.182 -21.285,-8.182 -8.87,0 -15.964,2.728 -21.285,8.182 -5.322,5.454 -7.983,13.59 -7.983,24.411 V 0 h 17.295 v -34.988 c 0,-5.41 0.952,-9.379 2.86,-11.906 1.906,-2.528 4.943,-3.791 9.113,-3.791 4.168,0 7.204,1.263 9.112,3.791 1.907,2.527 2.861,6.496 2.861,11.906 l 0,34.988 z" /></g><g
           transform="translate(500.7304,571.4318)"
           id="g36"><path
             id="path38"
             style="fill:#263169;fill-opacity:1;fill-rule:nonzero;stroke:none"
             d="m 0,0 v 0 -48.557 l 22.082,21.95 H 44.166 L 18.889,-52.149 48.424,-93.123 H 37.519 c -5.269,0 -10.221,2.516 -13.328,6.771 L 7.184,-63.057 0,-70.241 v -22.882 h -17.295 v 75.828 C -17.295,-7.743 -9.552,0 0,0" /></g><g
           transform="translate(550.4841,513.2961)"
           id="g40"><path
             id="path42"
             style="fill:#263169;fill-opacity:1;fill-rule:nonzero;stroke:none"
             d="m 0,0 c 0,10.554 2.614,18.492 7.848,23.813 5.233,5.322 12.107,7.982 20.62,7.982 h 0.799 V 14.9 h -0.665 c -3.814,0 -6.651,-1.197 -8.515,-3.592 C 18.225,8.914 17.294,5.143 17.294,0 V -17.693 C 17.294,-27.244 9.551,-34.987 0,-34.987 Z" /></g><g
           transform="translate(665.5576,527.9301)"
           id="g44"><path
             id="path46"
             style="fill:#273069;fill-opacity:1;fill-rule:nonzero;stroke:none"
             d="M 0,0 H -9.977 V 16.895 H 0.266 c 0.709,8.425 3.525,15.033 8.448,19.822 4.921,4.79 11.773,7.184 20.553,7.184 V 27.006 C 25.895,26.916 23.102,25.985 20.886,24.212 18.668,22.437 17.56,19.999 17.56,16.895 H 29.267 V 0 H 17.294 V -32.327 C 17.294,-41.879 9.551,-49.621 0,-49.621 Z" /></g><g
           transform="translate(726.7516,527.9301)"
           id="g48"><path
             id="path50"
             style="fill:#273069;fill-opacity:1;fill-rule:nonzero;stroke:none"
             d="m 0,0 v -18.225 c 0,-5.322 0.931,-9.136 2.794,-11.441 1.863,-2.308 4.922,-3.459 9.179,-3.459 v -16.896 c -8.959,0 -16.076,2.616 -21.352,7.85 -5.277,5.232 -7.915,13.214 -7.915,23.946 V 0 h -9.845 v 16.895 h 9.845 v 26.474 0 C -7.743,43.369 0,35.626 0,26.075 v -9.18 H 11.973 V 0 Z" /></g><g
           transform="translate(611.3541,514.9271)"
           id="g52"><path
             id="path54"
             style="fill:#eea822;fill-opacity:1;fill-rule:nonzero;stroke:none"
             d="m 0,0 c -1.144,0.003 -2.011,-0.902 -2.009,-2.099 0.002,-1.291 0.742,-2.034 2.018,-2.029 1.133,0.004 2.107,0.949 2.102,2.04 C 2.107,-1.041 1.057,-0.003 0,0" /></g><g
           transform="translate(617.5807,514.928)"
           id="g56"><path
             id="path58"
             style="fill:#eea822;fill-opacity:1;fill-rule:nonzero;stroke:none"
             d="M 0,0 C -1.092,0.007 -2.107,-0.991 -2.118,-2.082 -2.13,-3.201 -1.182,-4.127 -0.021,-4.13 1.172,-4.133 2.075,-3.263 2.081,-2.103 2.086,-1.001 1.103,-0.007 0,0" /></g><g
           transform="translate(635.532,511.7697)"
           id="g60"><path
             id="path62"
             style="fill:#eea822;fill-opacity:1;fill-rule:nonzero;stroke:none"
             d="m 0,0 c -0.501,-7.281 -4.285,-12.262 -10.734,-15.494 -3.897,-1.954 -6.244,-4.141 -7.154,-8.526 -0.563,1.301 -0.962,2.676 -1.701,3.835 -1.372,2.154 -3.442,3.607 -5.71,4.691 -4.613,2.204 -7.882,5.634 -9.626,10.424 -2.619,7.194 -0.494,15.218 5.33,20.051 4.125,3.423 8.946,4.591 14.223,3.898 5.083,-0.668 9.169,-3.072 12.151,-7.255 C -0.746,8.152 0.292,4.239 0,0 M 12.299,17.526 C 9.24,22.801 5.093,26.971 -0.139,30.03 c -5.234,3.06 -10.955,4.59 -17.162,4.59 -6.209,0 -11.929,-1.53 -17.161,-4.59 -5.233,-3.059 -9.401,-7.229 -12.505,-12.504 -3.105,-5.278 -4.656,-11.021 -4.656,-17.228 0,-6.209 1.551,-11.952 4.656,-17.228 3.104,-5.277 7.272,-9.445 12.505,-12.505 5.232,-3.059 10.952,-4.59 17.161,-4.59 3.726,0 7.228,0.799 10.511,2.395 3.279,1.596 5.408,3.502 6.385,5.72 0,-3.894 3.157,-7.051 7.051,-7.051 H 16.889 V 0.298 c 0,6.207 -1.53,11.95 -4.59,17.228" /></g><g
           transform="translate(623.8361,514.9276)"
           id="g64"><path
             id="path66"
             style="fill:#eea822;fill-opacity:1;fill-rule:nonzero;stroke:none"
             d="m 0,0 c -1.078,0.021 -2.115,-0.962 -2.152,-2.04 -0.038,-1.109 0.905,-2.071 2.048,-2.088 1.231,-0.018 2.082,0.777 2.121,1.984 C 2.053,-1.012 1.122,-0.022 0,0" /></g></g></g><g
       id="g68"><g
         clip-path="url(#clipPath74)"
         id="g70"><g
           id="g76"><g
             id="g78"><g
               id="g84"><g
                 id="g86"><path
                   id="path96"
                   style="fill:url(#linearGradient94);stroke:none"
                   d="m 1000,975.587 v 75.022 h 54.211 v -17.563 h -35.126 v -11.065 h 32.486 v -17.461 h -32.486 v -11.371 h 35.024 v -17.562 z" /></g></g></g></g></g></g></g></svg>