<?xml version="1.0" encoding="utf-8"?>
<!-- Generator: Adobe Illustrator 27.0.0, SVG Export Plug-In . SVG Version: 6.00 Build 0)  -->
<svg version="1.1" id="Layer_1" xmlns="http://www.w3.org/2000/svg" xmlns:xlink="http://www.w3.org/1999/xlink" x="0px" y="0px"
	 viewBox="0 0 60 60" style="enable-background:new 0 0 60 60;" xml:space="preserve">
<g>
	<path style="fill:#EB9C4D;" d="M29.99,13.84c8.43,0,16.85,0,25.28,0c0.48,0,0.97,0.01,1.43-0.09c1.57-0.34,2.49-1.73,2.34-3.48
		c-0.14-1.6-1.25-2.72-2.83-2.83c-0.35-0.03-0.71-0.02-1.06-0.02c-16.77,0-33.55,0-50.32,0c-0.5,0-1.02-0.02-1.51,0.08
		c-1.58,0.31-2.52,1.7-2.38,3.45c0.12,1.6,1.23,2.74,2.79,2.87c0.35,0.03,0.71,0.03,1.06,0.03C13.19,13.84,21.59,13.84,29.99,13.84z
		"/>
	<path style="fill:#EB9C4D;" d="M33.17,46.15c-7.44,0-14.88,0-22.31,0c-1.75,0-2.81,0.67-3.27,2.02c-0.81,2.37,0.64,4.4,3.19,4.4
		c8.93,0.01,17.85,0.01,26.78,0.01c6.05,0,12.1,0.01,18.15-0.01c2.45-0.01,3.86-1.87,3.21-4.21c-0.34-1.24-1.31-2.06-2.6-2.18
		c-0.38-0.03-0.76-0.03-1.13-0.03C47.84,46.15,40.51,46.15,33.17,46.15z"/>
	<path style="fill:#EB9C4D;" d="M39.75,33.21c5.32,0,10.64,0.01,15.97-0.01c2.45-0.01,3.84-1.9,3.19-4.23
		c-0.34-1.21-1.3-2.03-2.55-2.15c-0.38-0.04-0.76-0.04-1.13-0.04c-10.37,0-20.73,0-31.1,0c-0.48,0-0.97-0.01-1.43,0.08
		c-1.57,0.32-2.52,1.7-2.38,3.45c0.12,1.6,1.22,2.8,2.79,2.86c1.94,0.07,3.88,0.04,5.83,0.04C32.54,33.22,36.15,33.21,39.75,33.21z"
		/>
</g>
</svg>
