<svg width="68" height="66" viewBox="0 0 68 66" fill="none" xmlns="http://www.w3.org/2000/svg">
<path d="M13 30.2498H16.5M13 44.2498H16.5M51.5 44.2498H55M51.5 30.2498H55M32.25 30.2498H35.75M27 63.4998V49.4998C27 45.634 30.1339 42.4998 34 42.4998C37.8661 42.4998 41 45.634 41 49.4998V63.4998M51.5 16.2499L57.0163 17.629C60.0498 18.3874 61.5663 18.7665 62.6958 19.6121C63.6919 20.3582 64.4714 21.3564 64.9537 22.504C65.5 23.8046 65.5 25.368 65.5 28.4945V52.2998C65.5 56.2205 65.5 58.1805 64.737 59.6778C64.066 60.9952 62.9951 62.0658 61.678 62.7371C60.1807 63.4998 58.2203 63.4998 54.3 63.4998H13.7C9.77965 63.4998 7.81944 63.4998 6.32207 62.7371C5.00492 62.0658 3.93405 60.9952 3.26296 59.6778C2.5 58.1805 2.5 56.2205 2.5 52.2998V28.4945C2.5 25.368 2.5 23.8046 3.04646 22.504C3.52858 21.3564 4.30799 20.3582 5.30434 19.6121C6.43361 18.7665 7.95027 18.3874 10.9836 17.629L16.5 16.2499L26.5076 7.24311C29.1557 4.85972 30.4801 3.66804 31.9774 3.21605C33.2965 2.81796 34.7035 2.81796 36.0226 3.21605C37.5199 3.66804 38.8444 4.85972 41.4925 7.24311L51.5 16.2499Z" stroke="#EB9C4D" stroke-width="4" stroke-linecap="round" stroke-linejoin="round"/>
</svg>
