<svg width="84" height="84" viewBox="0 0 84 84" fill="none" xmlns="http://www.w3.org/2000/svg">
<path d="M63.63 28.1376L65.2522 26.5156C67.9395 23.8281 72.2971 23.8281 74.9844 26.5156C77.672 29.2031 77.672 33.5604 74.9844 36.2477L73.3624 37.87M63.63 28.1376C63.63 28.1376 63.833 31.5845 66.8741 34.6258C69.9156 37.667 73.3624 37.87 73.3624 37.87M63.63 28.1376L48.7179 43.0496C47.7078 44.0597 47.2027 44.5648 46.7684 45.1216C46.2563 45.7786 45.8171 46.4894 45.4587 47.2412C45.1549 47.8789 44.9288 48.5562 44.4773 49.9114L43.0311 54.25L42.5631 55.6535M73.3624 37.87L58.4503 52.7821C57.4402 53.7922 56.9352 54.2972 56.3783 54.7316C55.7214 55.2436 55.0105 55.6829 54.2587 56.0413C53.621 56.3451 52.9438 56.5712 51.5886 57.0227L47.25 58.4689L45.8465 58.9368M42.5631 55.6535L42.0952 57.0573C41.8729 57.7241 42.0465 58.4594 42.5435 58.9564C43.0405 59.4534 43.7759 59.627 44.4426 59.4048L45.8465 58.9368M42.5631 55.6535L45.8465 58.9368" stroke="#EB9C4D" stroke-width="5"/>
<path d="M28 45.5H36.75" stroke="#EB9C4D" stroke-width="5" stroke-linecap="round"/>
<path d="M28 31.5H50.75" stroke="#EB9C4D" stroke-width="5" stroke-linecap="round"/>
<path d="M28 59.5H33.25" stroke="#EB9C4D" stroke-width="5" stroke-linecap="round"/>
<path d="M10.5 49V35C10.5 21.8007 10.5 15.201 14.6005 11.1005C18.701 7 25.3007 7 38.5 7H45.5C58.6992 7 65.2991 7 69.3994 11.1005M73.5 49C73.5 62.1992 73.5 68.7991 69.3994 72.8994M69.3994 72.8994C65.2991 77 58.6992 77 45.5 77H38.5C25.3007 77 18.701 77 14.6005 72.8994M69.3994 72.8994C72.7002 69.5985 73.3439 64.6786 73.4696 56" stroke="#EB9C4D" stroke-width="4" stroke-linecap="round"/>
</svg>
