<svg width="70" height="84" viewBox="0 0 70 84" fill="none" xmlns="http://www.w3.org/2000/svg">
<path d="M39.9392 14.585C23.4973 14.5863 10.1733 27.9104 10.172 44.3521C10.1733 60.7953 23.4975 74.1193 39.9392 74.1206C56.3823 74.1193 69.7065 60.7951 69.7077 44.3521C69.7065 27.9103 56.3823 14.5863 39.9392 14.585ZM22.4378 26.8508C24.1096 25.1804 26.0196 23.7483 28.1081 22.6098C27.003 24.3022 26.039 26.208 25.2341 28.2939H21.126C21.5486 27.7995 21.9779 27.3105 22.4378 26.8508ZM18.2232 32.4753H23.9185C23.1318 35.5072 22.6678 38.8063 22.5238 42.2607H15.2952C15.5915 38.7358 16.6082 35.4214 18.2232 32.4753ZM18.2258 56.2303C16.6082 53.2827 15.5915 49.9683 15.295 46.4421H22.4946C22.6385 49.9048 23.126 53.1956 23.9155 56.2303H18.2258ZM22.4378 61.8533C21.9781 61.3936 21.5487 60.906 21.1276 60.4116H25.2357C25.8188 61.924 26.4795 63.3463 27.2191 64.6567C27.5059 65.1607 27.812 65.633 28.1208 66.1027C26.025 64.9628 24.1137 63.5292 22.4378 61.8533ZM37.8492 68.9974C37.6415 68.9809 37.4321 68.9712 37.2244 68.9476C36.5431 68.6677 35.8657 68.2979 35.1912 67.7952C33.1678 66.2924 31.2466 63.7343 29.7593 60.4116H37.8492V68.9974ZM37.8492 56.2303H28.2605C27.3976 53.2771 26.8631 49.9657 26.7051 46.4421H37.8492V56.2303ZM37.8492 42.2607H26.6746C26.8325 38.7386 27.3866 35.4284 28.2466 32.4753H37.8492V42.2607ZM37.8492 28.294H29.7702C30.1138 27.5267 30.4724 26.7886 30.8603 26.1056C32.1401 23.8355 33.6402 22.0669 35.1912 20.9091C35.8658 20.4075 36.5431 20.0392 37.2231 19.7593C37.4308 19.7359 37.6415 19.7262 37.8492 19.7081V28.294ZM61.6566 32.4753C63.2717 35.4214 64.2882 38.7358 64.5845 42.2607H57.3838C57.2397 38.7994 56.7521 35.5101 55.9627 32.4753H61.6566ZM57.4419 26.8508C57.9017 27.3105 58.3311 27.7995 58.7535 28.294H54.6428C54.061 26.7815 53.3989 25.3591 52.658 24.0474C52.3727 23.5447 52.0652 23.0724 51.7591 22.6014C53.8518 23.7426 55.7646 25.1762 57.4419 26.8508ZM42.0292 19.7081C42.2369 19.7262 42.4474 19.7359 42.6552 19.7593C43.3338 20.0392 44.0127 20.4075 44.687 20.9091C46.712 22.4117 48.6317 24.9727 50.1206 28.294H42.0292V19.7081ZM42.0292 32.4753H51.6191C52.4808 35.4283 53.0153 38.7399 53.1731 42.2607H42.0292V32.4753ZM49.0194 62.5985C47.7382 64.8686 46.2382 66.6387 44.687 67.7952C44.0127 68.2979 43.3338 68.6677 42.6538 68.9476C42.446 68.9712 42.2369 68.9807 42.0292 68.9974V60.4116H50.1096C49.7645 61.1774 49.4074 61.9172 49.0194 62.5985ZM42.0292 56.2303V46.4421H53.2036C53.0458 49.9657 52.4918 53.2773 51.6316 56.2303H42.0292ZM57.4419 61.8533C55.7701 63.5265 53.8602 64.9572 51.7715 66.0944C52.8753 64.4034 53.8394 62.4974 54.6441 60.4116H58.7519C58.3311 60.906 57.9017 61.3936 57.4419 61.8533ZM61.6537 56.2303H55.9599C56.7479 53.1997 57.2105 49.9006 57.3546 46.4421H64.5845C64.2882 49.9683 63.2716 53.2827 61.6537 56.2303Z" fill="#EB9C4D"/>
<path d="M58.8961 75.305C52.9751 78.9309 46.4392 80.6541 39.9751 80.6541C27.7562 80.6527 15.834 74.4907 8.98632 63.3092C5.36021 57.3882 3.63722 50.8521 3.63722 44.388C3.6387 32.1678 9.80072 20.2497 20.9836 13.3993L19.2369 10.5474C7.0279 18.0253 0.289692 31.0529 0.292481 44.388C0.291005 51.4463 2.18018 58.6001 6.13442 65.0557C13.6109 77.2621 26.6399 84.0016 39.9751 84.0001C47.0332 84.0001 54.187 82.1124 60.644 78.1582L58.8961 75.3064V75.305Z" fill="#EB9C4D"/>
<path d="M33.1276 11.4545H48.777C50.3878 11.4545 51.6952 10.9103 51.6952 9.29671C51.6952 7.68578 48.6108 6.12489 47.0001 6.12489H43.7674L37.1885 0.202396C36.8589 -0.161823 35.5528 0.0763959 35.1567 0.0778725C34.6678 0.0806616 34.7744 0.861763 34.9628 1.31605L36.8853 6.12489H32.2814L29.7564 2.11389C29.3131 1.63056 28.6191 1.46715 28.0085 1.7039C27.3962 1.9408 26.9933 2.52946 26.9933 3.18456L26.9518 6.12489V6.99327C26.9516 9.45716 29.9129 11.4545 33.1276 11.4545Z" fill="#EB9C4D"/>
</svg>
