<svg width="56" height="80" viewBox="0 0 56 80" fill="none" xmlns="http://www.w3.org/2000/svg">
<path d="M46.5456 34.2146C49.4016 34.5559 51.8402 36.0889 53.3916 38.2939L53.4126 38.3254C54.7041 40.8585 55.4601 43.851 55.4601 47.022C55.4601 47.5024 55.4417 47.9775 55.4076 48.4474L55.4102 48.3844C55.426 48.7466 55.4339 49.1719 55.4339 49.5997C55.4339 57.7425 52.3127 65.1581 47.1992 70.71L47.2202 70.689C42.1829 76.044 35.0481 79.3804 27.1364 79.3804C26.8319 79.3804 26.5274 79.3751 26.2229 79.3646H26.2675C26.2596 79.3646 26.2491 79.3646 26.2412 79.3646C22.7395 79.3646 19.3926 78.7005 16.3214 77.4904L16.5051 77.5534C13.3499 76.359 10.6435 74.6422 8.3571 72.4871L8.37023 72.4976C6.0051 70.3976 4.04948 67.8986 2.59785 65.0951L2.5296 64.9534C1.31423 62.5856 0.594977 59.7874 0.581852 56.8237V56.8185C0.568727 56.6032 0.558228 56.3539 0.558228 56.1019C0.558228 53.679 1.31423 51.432 2.60573 49.5866L2.5821 49.6234C4.17548 47.8095 6.36735 46.5547 8.84798 46.1689L8.90573 46.161C8.51723 45.3184 8.1156 44.2631 7.77435 43.179L7.71923 42.9742C7.5171 42.3836 7.3806 41.7011 7.3386 40.995V40.974C7.50135 38.9685 8.45948 37.2124 9.89535 36.0075L9.90585 35.9996C11.095 34.5952 12.7934 33.6529 14.7149 33.4639L14.7437 33.4612C15.4814 33.4691 16.1875 33.5977 16.8464 33.8261L16.7991 33.813C17.7546 34.149 18.5762 34.5401 19.3454 35.0074L19.285 34.9732C16.5095 27.114 14.4909 21.0485 13.2291 16.7767C12.3104 14.1964 11.641 11.1986 11.347 8.088L11.3365 7.93575C11.3286 7.81237 11.326 7.668 11.326 7.521C11.326 5.65462 11.9849 3.9405 13.0795 2.59912L13.069 2.61225C14.1584 1.39425 15.7334 0.630371 17.4895 0.630371C17.5892 0.630371 17.689 0.632996 17.7861 0.638246H17.773C21.1575 0.638246 25.4467 8.20787 30.6407 23.3471C31.5402 25.9424 32.2245 27.9435 32.6935 29.3505L34.3709 24.594C39.5596 9.593 44.03 2.09337 47.782 2.09512C47.8502 2.0925 47.9316 2.08987 48.013 2.08987C49.6694 2.08987 51.1577 2.81175 52.1815 3.95625L52.1867 3.9615C53.221 5.20575 53.8457 6.82012 53.8457 8.5815C53.8457 8.71537 53.8431 8.84662 53.8352 8.97787V8.9595C53.5412 12.1699 52.9007 15.1282 51.9452 17.937L52.0266 17.664C50.8191 21.8832 48.9895 27.3984 46.5377 34.2094L46.5456 34.2146ZM7.8321 56.2777C8.33348 56.892 9.0396 57.7897 9.93735 58.9815C12.3191 62.261 14.518 63.9007 16.534 63.9007C16.5392 63.9007 16.5471 63.9007 16.555 63.9007C17.248 63.9007 17.8806 63.6566 18.3767 63.2471L18.3715 63.2524C18.8256 62.9557 19.1354 62.4701 19.1852 61.9084V61.9005C19.0146 60.8767 18.634 59.9632 18.088 59.1757L18.1037 59.1994C17.1404 57.5771 16.1586 56.1806 15.0824 54.8655L15.1322 54.9285C14.0087 53.4427 12.8301 52.125 11.5517 50.9149L11.5386 50.9017C10.9506 50.2534 10.1605 49.7966 9.26798 49.6339L9.24435 49.6312C7.78223 49.7205 6.51698 50.4975 5.7636 51.642L5.7531 51.6577C4.75823 52.9204 4.1571 54.5347 4.1571 56.2882C4.1571 56.3434 4.1571 56.3985 4.15973 56.4536V56.4457C4.21223 58.2439 4.61385 59.937 5.3016 61.4726L5.26748 61.3886C6.15473 63.4834 7.2336 65.292 8.51985 66.9274L8.48048 66.8775C10.549 69.6547 13.2055 71.8807 16.2767 73.3927L16.4027 73.4479C19.3769 74.8969 22.8734 75.7447 26.5694 75.7447C26.6744 75.7447 26.7794 75.7447 26.8817 75.7421H26.866C26.9867 75.7447 27.1311 75.7447 27.2755 75.7447C34.1477 75.7447 40.3112 72.7076 44.4981 67.9012L44.5217 67.875C48.9449 62.9059 51.646 56.3224 51.646 49.1062C51.646 48.7755 51.6407 48.4474 51.6302 48.1192V48.1665C51.6355 47.9827 51.6381 47.7701 51.6381 47.5522C51.6381 45.7305 51.4386 43.956 51.058 42.2471L51.0895 42.4099C50.8454 41.1604 50.2075 40.0894 49.3124 39.3045L49.3071 39.2992C46.8449 37.6849 43.939 36.5246 40.8126 36.0154L40.684 35.997C36.7281 35.0677 32.1842 34.5375 27.5196 34.5375C27.4435 34.5375 27.3647 34.5375 27.2886 34.5375H27.3017C27.181 34.527 27.0419 34.5191 26.9001 34.5191C26.0286 34.5191 25.2149 34.7685 24.5271 35.1964L24.5455 35.1859C24.0362 35.6741 23.7212 36.3619 23.7212 37.1205C23.7212 37.2202 23.7265 37.3174 23.737 37.4145V37.4014C23.7632 39.9371 25.4774 42.0634 27.8084 42.717L27.8477 42.7275C31.2366 43.8064 35.1374 44.4285 39.1799 44.4285C39.8729 44.4285 40.5606 44.4101 41.2431 44.3734L41.1486 44.3786H43.3615C43.3746 44.3786 43.393 44.3786 43.4087 44.3786C43.8812 44.3786 44.3039 44.5991 44.5769 44.943L44.5795 44.9456C44.9181 45.4234 45.1439 46.0061 45.2016 46.6387V46.6519C44.1201 47.4761 42.8627 48.1455 41.5082 48.597L41.4164 48.6232C39.7442 49.227 38.2979 49.9672 36.9644 50.8597L37.0379 50.8125C34.9405 52.3402 33.2001 54.2197 31.8692 56.3775L31.822 56.4615C30.6565 58.2097 29.9294 60.3386 29.8454 62.6329V62.6539C29.9005 64.2105 30.205 65.6805 30.7169 67.0481L30.6854 66.951C31.0424 67.8435 31.3337 68.8882 31.5096 69.975L31.5201 70.0616V70.4396L31.4125 70.9279C29.7115 70.7546 28.3019 69.6652 27.6666 68.169L27.6561 68.1401C26.7767 66.2816 26.2622 64.1055 26.2622 61.806C26.2622 61.5724 26.2675 61.3387 26.278 61.1077V61.1419V60.6562C26.0391 60.8741 25.7609 61.0579 25.4564 61.1891L25.438 61.197C25.1807 61.302 24.8815 61.3624 24.5691 61.3624C24.5612 61.3624 24.5534 61.3624 24.5455 61.3624C24.5402 61.3624 24.535 61.3624 24.5297 61.3624C24.2095 61.3624 23.8971 61.3309 23.5952 61.2731L23.6267 61.2784C23.233 61.2022 22.9049 61.1182 22.5846 61.0185L22.6502 61.0369C22.8235 61.6432 22.939 62.3467 22.9731 63.0712V63.0922C22.9731 63.0975 22.9731 63.1054 22.9731 63.1106C22.9731 64.473 22.3667 65.6936 21.4112 66.5179L21.406 66.5231C20.4531 67.4104 19.1721 67.9564 17.7625 67.9564C17.7336 67.9564 17.7021 67.9564 17.6732 67.9564H17.6785C14.9249 67.7726 12.4941 66.531 10.7642 64.6384L10.7564 64.6305C8.7876 63.0739 7.47248 60.7691 7.24148 58.152L7.23885 58.1179C7.23885 58.1021 7.23885 58.0864 7.23885 58.068C7.23885 57.711 7.28873 57.3645 7.3806 57.039L7.37535 57.0652C7.4646 56.7555 7.61948 56.4904 7.8321 56.2777ZM24.0546 57.5719C24.7319 57.5509 25.3304 57.2306 25.7241 56.7397L25.7267 56.7345C26.1835 56.2672 26.4722 55.6294 26.4854 54.9259V54.9232C26.1782 53.1277 25.6611 51.5186 24.9524 50.0197L24.9996 50.1326C23.8525 47.2766 22.6109 44.8459 21.1776 42.549L21.2957 42.7511C20.4032 41.1866 19.3427 39.8426 18.1116 38.6771L18.1037 38.6692C17.3399 37.8896 16.303 37.3777 15.148 37.2937H15.1322C14.1032 37.4276 13.2212 37.9552 12.6227 38.7191L12.6175 38.727C11.8536 39.3911 11.3444 40.3309 11.242 41.3861L11.2394 41.4019C11.4179 42.8614 11.8982 44.1817 12.6149 45.3367L12.5912 45.2947C13.7252 47.3921 14.9275 49.1955 16.2715 50.8781L16.2137 50.8046C17.5577 52.671 19.033 54.3011 20.671 55.7554L20.7025 55.7816C21.574 56.6951 22.7264 57.333 24.0179 57.5614L24.0546 57.5666V57.5719ZM29.3519 31.4584L23.5139 14.5875C22.477 11.3351 21.2852 8.55262 19.8651 5.91187L19.9964 6.17962C19.1669 4.86012 18.2656 4.20212 17.2926 4.20562C17.2742 4.20562 17.2532 4.20562 17.2349 4.20562C16.5156 4.20562 15.8725 4.54162 15.4604 5.06662L15.4577 5.07187C15.0141 5.65987 14.7464 6.40275 14.7464 7.20862C14.7464 7.27425 14.749 7.33987 14.7516 7.40287V7.395C15.043 10.5817 15.715 13.5191 16.723 16.2937L16.6442 16.0496C17.9077 20.1604 19.8004 25.5486 22.3221 32.2144C22.5216 31.8364 22.8419 31.545 23.2277 31.3822L23.2409 31.377C23.6714 31.2221 24.1675 31.1302 24.6872 31.1302C24.7502 31.1302 24.8132 31.1329 24.8736 31.1355H24.8657C25.081 31.1355 25.5141 31.1512 26.1651 31.188C26.8109 31.2247 27.874 31.3157 29.3545 31.461L29.3519 31.4584ZM35.4629 47.841C33.8485 47.7701 32.3312 47.5969 30.8507 47.3239L31.0555 47.3554C29.5356 47.0797 28.2021 46.7044 26.9211 46.2187L27.0812 46.2712C27.6552 47.4262 28.1689 48.5795 28.6221 49.731C28.9949 50.634 29.3729 51.7706 29.68 52.9335L29.7272 53.1409C30.5882 52.0646 31.4834 51.1012 32.4441 50.2061L32.4599 50.1904C33.3576 49.3556 34.3367 48.5812 35.3762 47.8909L35.4602 47.8384L35.4629 47.841ZM42.6527 33.2959C45.0677 26.7351 46.9516 21.3197 48.3044 17.0497C49.1627 14.8001 49.8689 12.1515 50.302 9.411L50.3309 9.18262C50.3361 9.11175 50.3387 9.03037 50.3387 8.949C50.3387 8.12737 50.0841 7.36612 49.6484 6.73875L49.6562 6.75187C49.2415 6.22162 48.6036 5.883 47.8844 5.883C47.8502 5.883 47.8187 5.883 47.7846 5.88562H47.7899C46.7792 5.88562 45.7555 6.723 44.7055 8.39775C43.3877 10.7051 42.2144 13.3826 41.3271 16.1861L41.2457 16.4827L35.8409 32.1067L42.6527 33.2959Z" fill="#EB9C4D"/>
</svg>
