<svg width="68" height="68" viewBox="0 0 68 68" fill="none" xmlns="http://www.w3.org/2000/svg">
<path d="M2.5 23.5V59.9C2.5 61.8603 2.5 62.8397 2.88146 63.5883C3.21704 64.247 3.75209 64.7832 4.41065 65.1188C5.1586 65.5 6.13825 65.5 8.09461 65.5H44.5003M51.5 20L37.5 34L30.5 27M16.5 40.3007V13.7007C16.5 9.78032 16.5 7.81867 17.263 6.3213C17.9341 5.00415 19.0041 3.93405 20.3213 3.26296C21.8187 2.5 23.7803 2.5 27.7007 2.5H54.3007C58.221 2.5 60.1803 2.5 61.6776 3.26296C62.9947 3.93405 64.0667 5.00415 64.7377 6.3213C65.5007 7.81867 65.5007 9.77891 65.5007 13.6992V40.2993C65.5007 44.2196 65.5007 46.18 64.7377 47.6773C64.0667 48.9943 62.9947 50.0667 61.6776 50.7377C60.1817 51.5 58.2252 51.5 54.3126 51.5H27.6891C23.7765 51.5 21.8172 51.5 20.3213 50.7377C19.0041 50.0667 17.9341 48.9947 17.263 47.6776C16.5 46.1803 16.5 44.2211 16.5 40.3007Z" stroke="#EB9C4D" stroke-width="4" stroke-linecap="round" stroke-linejoin="round"/>
</svg>
