<svg width="66" height="67" viewBox="0 0 66 67" fill="none" xmlns="http://www.w3.org/2000/svg">
<g filter="url(#filter0_d_1_11)">
<path d="M4.27041 29.6407C4.26902 34.6819 5.58623 39.6042 8.09088 43.9428L4.03088 58.7666L19.2012 54.7889C23.397 57.0731 28.0982 58.27 32.8756 58.2703H32.8881C48.6591 58.2703 61.497 45.437 61.5037 29.6633C61.5067 22.0198 58.5328 14.8324 53.1295 9.42492C47.7272 4.01795 40.5423 1.03864 32.887 1.03516C17.1142 1.03516 4.27692 13.8677 4.27041 29.6407Z" fill="url(#paint0_linear_1_11)"/>
</g>
<path d="M3.24884 29.6316C3.24721 34.8542 4.61163 39.9526 7.20559 44.4465L3 59.8016L18.7142 55.6814C23.044 58.0421 27.9189 59.2867 32.8793 59.2886H32.8921C49.2289 59.2886 62.5279 45.9937 62.5349 29.6553C62.5377 21.7372 59.4568 14.2914 53.8605 8.69023C48.2635 3.08977 40.8217 0.00325581 32.8921 0C16.5526 0 3.25535 13.293 3.24884 29.6316ZM12.6072 43.6726L12.0205 42.7412C9.55396 38.8193 8.2521 34.2872 8.25396 29.6335C8.25907 16.0533 19.3112 5.00465 32.9014 5.00465C39.4828 5.00744 45.668 7.57302 50.32 12.2279C54.9719 16.8833 57.5317 23.0716 57.53 29.6535C57.524 43.2337 46.4717 54.2837 32.8921 54.2837H32.8824C28.4607 54.2814 24.1242 53.094 20.3424 50.85L19.4424 50.3163L10.1172 52.7612L12.6072 43.6726Z" fill="url(#paint1_linear_1_11)"/>
<path d="M25.4834 17.2438C24.9285 16.0105 24.3445 15.9856 23.8169 15.964C23.3848 15.9454 22.8908 15.9468 22.3973 15.9468C21.9034 15.9468 21.1008 16.1326 20.4224 16.8733C19.7434 17.6147 17.8299 19.4063 17.8299 23.0503C17.8299 26.6945 20.4841 30.2161 20.8541 30.7108C21.2245 31.2045 25.978 38.9217 33.5064 41.8905C39.7631 44.3577 41.0364 43.867 42.3943 43.7433C43.7524 43.6201 46.7766 41.9522 47.3936 40.2226C48.011 38.4933 48.011 37.011 47.8259 36.7012C47.6408 36.3926 47.1469 36.2073 46.4062 35.837C45.6652 35.4666 42.0238 33.6747 41.345 33.4275C40.6659 33.1805 40.1722 33.0573 39.6783 33.7989C39.1843 34.5394 37.7659 36.2073 37.3336 36.7012C36.9017 37.1963 36.4694 37.258 35.7289 36.8875C34.9878 36.5159 32.6024 35.7347 29.7724 33.2117C27.5706 31.2484 26.0841 28.824 25.652 28.0824C25.2199 27.3419 25.6057 26.9405 25.9771 26.5715C26.3099 26.2396 26.718 25.7066 27.0887 25.2742C27.458 24.8417 27.5813 24.5331 27.8283 24.0391C28.0755 23.5447 27.9517 23.1122 27.7669 22.7417C27.5813 22.3712 26.142 18.7082 25.4834 17.2438Z" fill="white"/>
<defs>
<filter id="filter0_d_1_11" x="0.0308838" y="1.03516" width="65.4728" height="65.7314" filterUnits="userSpaceOnUse" color-interpolation-filters="sRGB">
<feFlood flood-opacity="0" result="BackgroundImageFix"/>
<feColorMatrix in="SourceAlpha" type="matrix" values="0 0 0 0 0 0 0 0 0 0 0 0 0 0 0 0 0 0 127 0" result="hardAlpha"/>
<feOffset dy="4"/>
<feGaussianBlur stdDeviation="2"/>
<feComposite in2="hardAlpha" operator="out"/>
<feColorMatrix type="matrix" values="0 0 0 0 0 0 0 0 0 0 0 0 0 0 0 0 0 0 0.25 0"/>
<feBlend mode="normal" in2="BackgroundImageFix" result="effect1_dropShadow_1_11"/>
<feBlend mode="normal" in="SourceGraphic" in2="effect1_dropShadow_1_11" result="shape"/>
</filter>
<linearGradient id="paint0_linear_1_11" x1="2877.67" y1="5774.18" x2="2877.67" y2="1.03516" gradientUnits="userSpaceOnUse">
<stop stop-color="#276936"/>
<stop offset="1" stop-color="#273069"/>
</linearGradient>
<linearGradient id="paint1_linear_1_11" x1="2979.75" y1="5980.16" x2="2979.75" y2="0" gradientUnits="userSpaceOnUse">
<stop stop-color="#F9F9F9"/>
<stop offset="1" stop-color="white"/>
</linearGradient>
</defs>
</svg>
